<mxfile host="app.diagrams.net" modified="2023-11-20T06:17:19.493Z" agent="Mozilla/5.0 (Macintosh; Intel Mac OS X 10_15_7) AppleWebKit/537.36 (KHTML, like Gecko) Chrome/118.0.0.0 Safari/537.36" etag="Op-k8b1ZlYihpT_l44Bc" version="22.1.3" type="github">
  <diagram name="Page-1" id="NQk4FHPxa6d9a9Xzu11Q">
    <mxGraphModel dx="1434" dy="1940" grid="1" gridSize="10" guides="1" tooltips="1" connect="1" arrows="1" fold="1" page="1" pageScale="1" pageWidth="850" pageHeight="1100" math="0" shadow="0">
      <root>
        <mxCell id="0" />
        <mxCell id="1" parent="0" />
        <mxCell id="V_vyaaq5Ykr70dIOh13H-60" value="" style="rounded=0;whiteSpace=wrap;html=1;fillColor=#fff2cc;strokeColor=#d6b656;" parent="1" vertex="1">
          <mxGeometry x="30" y="140" width="650" height="1070" as="geometry" />
        </mxCell>
        <mxCell id="V_vyaaq5Ykr70dIOh13H-61" value="" style="rounded=0;whiteSpace=wrap;html=1;fillColor=#d5e8d4;strokeColor=#82b366;labelPosition=left;verticalLabelPosition=middle;align=right;verticalAlign=middle;" parent="1" vertex="1">
          <mxGeometry x="30" y="-40" width="650" height="170" as="geometry" />
        </mxCell>
        <mxCell id="V_vyaaq5Ykr70dIOh13H-57" style="edgeStyle=orthogonalEdgeStyle;rounded=0;orthogonalLoop=1;jettySize=auto;html=1;entryX=0.5;entryY=0;entryDx=0;entryDy=0;" parent="1" source="V_vyaaq5Ykr70dIOh13H-1" target="V_vyaaq5Ykr70dIOh13H-6" edge="1">
          <mxGeometry relative="1" as="geometry" />
        </mxCell>
        <mxCell id="V_vyaaq5Ykr70dIOh13H-1" value="开始" style="ellipse;whiteSpace=wrap;html=1;aspect=fixed;" parent="1" vertex="1">
          <mxGeometry x="320" y="-100" width="40" height="40" as="geometry" />
        </mxCell>
        <mxCell id="V_vyaaq5Ykr70dIOh13H-40" value="" style="edgeStyle=orthogonalEdgeStyle;rounded=0;orthogonalLoop=1;jettySize=auto;html=1;" parent="1" source="V_vyaaq5Ykr70dIOh13H-2" target="V_vyaaq5Ykr70dIOh13H-39" edge="1">
          <mxGeometry relative="1" as="geometry" />
        </mxCell>
        <mxCell id="V_vyaaq5Ykr70dIOh13H-2" value="待产品确认" style="rounded=1;whiteSpace=wrap;html=1;fillColor=#008a00;fontColor=#ffffff;strokeColor=#005700;" parent="1" vertex="1">
          <mxGeometry x="295" y="80" width="90" height="40" as="geometry" />
        </mxCell>
        <mxCell id="V_vyaaq5Ykr70dIOh13H-8" value="" style="edgeStyle=orthogonalEdgeStyle;rounded=0;orthogonalLoop=1;jettySize=auto;html=1;" parent="1" target="V_vyaaq5Ykr70dIOh13H-7" edge="1">
          <mxGeometry relative="1" as="geometry">
            <mxPoint x="340" y="440" as="sourcePoint" />
          </mxGeometry>
        </mxCell>
        <mxCell id="V_vyaaq5Ykr70dIOh13H-58" style="edgeStyle=orthogonalEdgeStyle;rounded=0;orthogonalLoop=1;jettySize=auto;html=1;entryX=0.5;entryY=0;entryDx=0;entryDy=0;" parent="1" source="V_vyaaq5Ykr70dIOh13H-6" target="V_vyaaq5Ykr70dIOh13H-2" edge="1">
          <mxGeometry relative="1" as="geometry" />
        </mxCell>
        <mxCell id="V_vyaaq5Ykr70dIOh13H-6" value="需求人&lt;br&gt;提交需求" style="rounded=1;whiteSpace=wrap;html=1;" parent="1" vertex="1">
          <mxGeometry x="297.5" y="-10" width="85" height="40" as="geometry" />
        </mxCell>
        <mxCell id="V_vyaaq5Ykr70dIOh13H-15" value="" style="edgeStyle=orthogonalEdgeStyle;rounded=0;orthogonalLoop=1;jettySize=auto;html=1;" parent="1" source="V_vyaaq5Ykr70dIOh13H-7" edge="1">
          <mxGeometry relative="1" as="geometry">
            <mxPoint x="340" y="640" as="targetPoint" />
          </mxGeometry>
        </mxCell>
        <mxCell id="V_vyaaq5Ykr70dIOh13H-7" value="产品内部评估工作量&amp;amp;影响范围" style="rounded=1;whiteSpace=wrap;html=1;" parent="1" vertex="1">
          <mxGeometry x="280" y="510" width="120" height="60" as="geometry" />
        </mxCell>
        <mxCell id="V_vyaaq5Ykr70dIOh13H-9" value="是" style="rounded=0;whiteSpace=wrap;html=1;" parent="1" vertex="1">
          <mxGeometry x="350" y="460" width="30" height="20" as="geometry" />
        </mxCell>
        <mxCell id="V_vyaaq5Ykr70dIOh13H-20" value="" style="edgeStyle=orthogonalEdgeStyle;rounded=0;orthogonalLoop=1;jettySize=auto;html=1;entryX=0.5;entryY=0;entryDx=0;entryDy=0;" parent="1" target="98XV745TaRAAw5JHfFGS-9" edge="1">
          <mxGeometry relative="1" as="geometry">
            <mxPoint x="340" y="720" as="sourcePoint" />
            <mxPoint x="340" y="740" as="targetPoint" />
          </mxGeometry>
        </mxCell>
        <mxCell id="98XV745TaRAAw5JHfFGS-6" style="edgeStyle=none;curved=1;rounded=0;orthogonalLoop=1;jettySize=auto;html=1;fontSize=12;startSize=8;endSize=8;" parent="1" edge="1">
          <mxGeometry relative="1" as="geometry">
            <mxPoint x="380" y="690" as="sourcePoint" />
            <mxPoint x="530" y="690" as="targetPoint" />
          </mxGeometry>
        </mxCell>
        <mxCell id="V_vyaaq5Ykr70dIOh13H-41" value="" style="edgeStyle=orthogonalEdgeStyle;rounded=0;orthogonalLoop=1;jettySize=auto;html=1;" parent="1" source="V_vyaaq5Ykr70dIOh13H-39" edge="1">
          <mxGeometry relative="1" as="geometry">
            <mxPoint x="340" y="350" as="targetPoint" />
          </mxGeometry>
        </mxCell>
        <mxCell id="V_vyaaq5Ykr70dIOh13H-43" value="" style="edgeStyle=orthogonalEdgeStyle;rounded=0;orthogonalLoop=1;jettySize=auto;html=1;entryX=0;entryY=0.25;entryDx=0;entryDy=0;" parent="1" source="V_vyaaq5Ykr70dIOh13H-39" edge="1">
          <mxGeometry relative="1" as="geometry">
            <mxPoint x="530" y="240" as="targetPoint" />
          </mxGeometry>
        </mxCell>
        <mxCell id="V_vyaaq5Ykr70dIOh13H-39" value="需求是否&lt;br&gt;清晰明确" style="rhombus;whiteSpace=wrap;html=1;rounded=1;" parent="1" vertex="1">
          <mxGeometry x="295" y="190" width="90" height="100" as="geometry" />
        </mxCell>
        <mxCell id="V_vyaaq5Ykr70dIOh13H-44" value="否" style="rounded=0;whiteSpace=wrap;html=1;" parent="1" vertex="1">
          <mxGeometry x="440" y="210" width="30" height="20" as="geometry" />
        </mxCell>
        <mxCell id="V_vyaaq5Ykr70dIOh13H-54" value="&lt;div style=&quot;text-align: left;&quot;&gt;&lt;b&gt;需求类型：&lt;/b&gt;&lt;/div&gt;&lt;b&gt;1. 新功能(New Feature)&lt;br&gt;&lt;/b&gt;&lt;div style=&quot;text-align: left;&quot;&gt;&lt;b&gt;2. 缺陷(Bug)&lt;/b&gt;&lt;/div&gt;" style="rounded=0;whiteSpace=wrap;html=1;labelBackgroundColor=default;" parent="1" vertex="1">
          <mxGeometry x="245" y="-220" width="190" height="70" as="geometry" />
        </mxCell>
        <mxCell id="V_vyaaq5Ykr70dIOh13H-59" value="" style="edgeStyle=orthogonalEdgeStyle;rounded=0;orthogonalLoop=1;jettySize=auto;html=1;exitX=0.5;exitY=0;exitDx=0;exitDy=0;" parent="1" source="98XV745TaRAAw5JHfFGS-13" edge="1">
          <mxGeometry relative="1" as="geometry">
            <mxPoint x="575" y="230" as="sourcePoint" />
            <mxPoint x="385" y="100" as="targetPoint" />
            <Array as="points">
              <mxPoint x="570" y="220" />
              <mxPoint x="570" y="100" />
            </Array>
          </mxGeometry>
        </mxCell>
        <mxCell id="V_vyaaq5Ykr70dIOh13H-46" value="需求人重新&lt;br&gt;梳理需求" style="rounded=0;whiteSpace=wrap;html=1;" parent="1" vertex="1">
          <mxGeometry x="425" y="60" width="75" height="30" as="geometry" />
        </mxCell>
        <mxCell id="V_vyaaq5Ykr70dIOh13H-62" value="该阶段下，需求状态由需求人置入" style="rounded=0;whiteSpace=wrap;html=1;fillColor=#d5e8d4;strokeColor=#82b366;strokeWidth=0;" parent="1" vertex="1">
          <mxGeometry x="30" y="-40" width="120" height="60" as="geometry" />
        </mxCell>
        <mxCell id="V_vyaaq5Ykr70dIOh13H-63" value="以下阶段的需求状态由产品置入" style="rounded=0;whiteSpace=wrap;html=1;fillColor=#fff2cc;strokeColor=#d6b656;dashed=1;" parent="1" vertex="1">
          <mxGeometry x="30" y="130" width="120" height="60" as="geometry" />
        </mxCell>
        <mxCell id="98XV745TaRAAw5JHfFGS-2" value="否" style="rounded=0;whiteSpace=wrap;html=1;" parent="1" vertex="1">
          <mxGeometry x="440" y="650" width="30" height="20" as="geometry" />
        </mxCell>
        <mxCell id="98XV745TaRAAw5JHfFGS-4" value="已拒绝" style="rounded=1;whiteSpace=wrap;html=1;fillColor=#008a00;fontColor=#ffffff;strokeColor=#005700;" parent="1" vertex="1">
          <mxGeometry x="530" y="380" width="90" height="40" as="geometry" />
        </mxCell>
        <mxCell id="98XV745TaRAAw5JHfFGS-5" value="排期待定" style="rounded=1;whiteSpace=wrap;html=1;fillColor=#008a00;fontColor=#ffffff;strokeColor=#005700;" parent="1" vertex="1">
          <mxGeometry x="530" y="670" width="90" height="40" as="geometry" />
        </mxCell>
        <mxCell id="98XV745TaRAAw5JHfFGS-15" style="edgeStyle=none;curved=1;rounded=0;orthogonalLoop=1;jettySize=auto;html=1;entryX=0;entryY=0.5;entryDx=0;entryDy=0;fontSize=12;startSize=8;endSize=8;" parent="1" source="98XV745TaRAAw5JHfFGS-12" target="98XV745TaRAAw5JHfFGS-4" edge="1">
          <mxGeometry relative="1" as="geometry" />
        </mxCell>
        <mxCell id="98XV745TaRAAw5JHfFGS-12" value="&amp;nbsp; 产品评估&lt;br style=&quot;border-color: var(--border-color);&quot;&gt;需求是否&lt;br style=&quot;border-color: var(--border-color);&quot;&gt;有效" style="rhombus;whiteSpace=wrap;html=1;rounded=1;" parent="1" vertex="1">
          <mxGeometry x="295" y="350" width="90" height="100" as="geometry" />
        </mxCell>
        <mxCell id="98XV745TaRAAw5JHfFGS-13" value="待需求人确认" style="rounded=1;whiteSpace=wrap;html=1;fillColor=#008a00;fontColor=#ffffff;strokeColor=#005700;" parent="1" vertex="1">
          <mxGeometry x="530" y="220" width="90" height="40" as="geometry" />
        </mxCell>
        <mxCell id="98XV745TaRAAw5JHfFGS-16" value="否" style="rounded=0;whiteSpace=wrap;html=1;" parent="1" vertex="1">
          <mxGeometry x="440" y="370" width="30" height="20" as="geometry" />
        </mxCell>
        <mxCell id="98XV745TaRAAw5JHfFGS-17" value="是" style="rounded=0;whiteSpace=wrap;html=1;" parent="1" vertex="1">
          <mxGeometry x="350" y="310" width="30" height="20" as="geometry" />
        </mxCell>
        <mxCell id="98XV745TaRAAw5JHfFGS-19" value="是" style="rounded=0;whiteSpace=wrap;html=1;" parent="1" vertex="1">
          <mxGeometry x="350" y="770" width="30" height="20" as="geometry" />
        </mxCell>
        <mxCell id="98XV745TaRAAw5JHfFGS-20" value="是" style="rounded=0;whiteSpace=wrap;html=1;" parent="1" vertex="1">
          <mxGeometry x="350" y="1050" width="30" height="20" as="geometry" />
        </mxCell>
        <mxCell id="98XV745TaRAAw5JHfFGS-21" value="是否可排期" style="rhombus;whiteSpace=wrap;html=1;rounded=1;" parent="1" vertex="1">
          <mxGeometry x="295" y="640" width="90" height="100" as="geometry" />
        </mxCell>
        <mxCell id="98XV745TaRAAw5JHfFGS-23" value="" style="edgeStyle=orthogonalEdgeStyle;rounded=0;orthogonalLoop=1;jettySize=auto;html=1;" parent="1" target="98XV745TaRAAw5JHfFGS-9" edge="1">
          <mxGeometry relative="1" as="geometry">
            <mxPoint x="340" y="800" as="sourcePoint" />
            <mxPoint x="340" y="900" as="targetPoint" />
          </mxGeometry>
        </mxCell>
        <mxCell id="98XV745TaRAAw5JHfFGS-31" value="" style="edgeStyle=none;curved=1;rounded=0;orthogonalLoop=1;jettySize=auto;html=1;fontSize=12;startSize=8;endSize=8;" parent="1" source="98XV745TaRAAw5JHfFGS-9" edge="1">
          <mxGeometry relative="1" as="geometry">
            <mxPoint x="337.9545454545455" y="930" as="targetPoint" />
          </mxGeometry>
        </mxCell>
        <mxCell id="98XV745TaRAAw5JHfFGS-9" value="确定排期" style="rounded=1;whiteSpace=wrap;html=1;fillColor=#008a00;fontColor=#ffffff;strokeColor=#005700;" parent="1" vertex="1">
          <mxGeometry x="295" y="820" width="90" height="40" as="geometry" />
        </mxCell>
        <mxCell id="98XV745TaRAAw5JHfFGS-30" value="" style="edgeStyle=none;curved=1;rounded=0;orthogonalLoop=1;jettySize=auto;html=1;fontSize=12;startSize=8;endSize=8;" parent="1" target="98XV745TaRAAw5JHfFGS-29" edge="1">
          <mxGeometry relative="1" as="geometry">
            <mxPoint x="337.5" y="970" as="sourcePoint" />
          </mxGeometry>
        </mxCell>
        <mxCell id="98XV745TaRAAw5JHfFGS-33" value="" style="edgeStyle=none;curved=1;rounded=0;orthogonalLoop=1;jettySize=auto;html=1;fontSize=12;startSize=8;endSize=8;" parent="1" source="98XV745TaRAAw5JHfFGS-29" edge="1">
          <mxGeometry relative="1" as="geometry">
            <mxPoint x="337.5" y="1110" as="targetPoint" />
          </mxGeometry>
        </mxCell>
        <mxCell id="98XV745TaRAAw5JHfFGS-29" value="是否如期开发" style="rhombus;whiteSpace=wrap;html=1;rounded=1;" parent="1" vertex="1">
          <mxGeometry x="292.5" y="930" width="90" height="100" as="geometry" />
        </mxCell>
        <mxCell id="98XV745TaRAAw5JHfFGS-43" value="否" style="rounded=0;whiteSpace=wrap;html=1;" parent="1" vertex="1">
          <mxGeometry x="210" y="830" width="30" height="20" as="geometry" />
        </mxCell>
        <mxCell id="98XV745TaRAAw5JHfFGS-45" value="" style="endArrow=none;html=1;rounded=0;fontSize=12;startSize=8;endSize=8;curved=1;exitX=0;exitY=0.5;exitDx=0;exitDy=0;" parent="1" source="98XV745TaRAAw5JHfFGS-29" edge="1">
          <mxGeometry width="50" height="50" relative="1" as="geometry">
            <mxPoint x="350" y="920" as="sourcePoint" />
            <mxPoint x="200" y="980" as="targetPoint" />
          </mxGeometry>
        </mxCell>
        <mxCell id="98XV745TaRAAw5JHfFGS-46" value="" style="endArrow=none;html=1;rounded=0;fontSize=12;startSize=8;endSize=8;curved=1;" parent="1" edge="1">
          <mxGeometry width="50" height="50" relative="1" as="geometry">
            <mxPoint x="200" y="980" as="sourcePoint" />
            <mxPoint x="200" y="690" as="targetPoint" />
          </mxGeometry>
        </mxCell>
        <mxCell id="98XV745TaRAAw5JHfFGS-47" value="" style="endArrow=classic;html=1;rounded=0;fontSize=12;startSize=8;endSize=8;curved=1;entryX=0;entryY=0.5;entryDx=0;entryDy=0;" parent="1" target="98XV745TaRAAw5JHfFGS-21" edge="1">
          <mxGeometry width="50" height="50" relative="1" as="geometry">
            <mxPoint x="200" y="690" as="sourcePoint" />
            <mxPoint x="400" y="870" as="targetPoint" />
          </mxGeometry>
        </mxCell>
        <mxCell id="Z0iDgmvmGpAXVHRu_zSe-2" value="产品开发完成" style="rounded=1;whiteSpace=wrap;html=1;fillColor=#008a00;fontColor=#ffffff;strokeColor=#005700;" vertex="1" parent="1">
          <mxGeometry x="290" y="1110" width="90" height="40" as="geometry" />
        </mxCell>
      </root>
    </mxGraphModel>
  </diagram>
</mxfile>
